{
  "accessors": [
    {
      "bufferView": 2,
      "componentType": 5126,
      "count": 1525,
      "max": [
        1.011492133140564,
        1.0120178461074829,
        0.28823134303092957
      ],
      "min": [
        -1.0113167762756348,
        -1.0107914209365845,
        -0.32136976718902588
      ],
      "type": "VEC3"
    },
    {
      "bufferView": 2,
      "byteOffset": 18300,
      "componentType": 5126,
      "count": 1525,
      "max": [
        1,
        1,
        0.99715006351470947
      ],
      "min": [
        -0.99993658065795898,
        -0.99993658065795898,
        -1
      ],
      "type": "VEC3"
    },
    {
      "bufferView": 3,
      "componentType": 5126,
      "count": 1525,
      "max": [
        0.87877446413040161,
        0.93419092893600464,
        1,
        1
      ],
      "min": [
        -0.87644994258880615,
        -0.93964886665344238,
        -0.99706029891967773,
        1
      ],
      "type": "VEC4"
    },
    {
      "bufferView": 1,
      "componentType": 5126,
      "count": 1525,
      "max": [
        0.99083364009857178,
        0.99074739217758179
      ],
      "min": [
        0.0092546436935663223,
        0.0067208381369709969
      ],
      "type": "VEC2"
    },
    {
      "bufferView": 0,
      "componentType": 5125,
      "count": 5748,
      "max": [
        1524
      ],
      "min": [
        0
      ],
      "type": "SCALAR"
    }
  ],
  "asset": {
    "extras": {
      "author": "aurelkillers1 (https://sketchfab.com/aurelkillers1)",
      "license": "CC-BY-4.0 (http://creativecommons.org/licenses/by/4.0/)",
      "source": "https://sketchfab.com/3d-models/canned-tuna-ad982e9e808542249809f55f3c1df657",
      "title": "Canned Tuna"
    },
    "generator": "Sketchfab-8.47.0",
    "version": "2.0"
  },
  "bufferViews": [
    {
      "buffer": 0,
      "byteLength": 22992,
      "byteOffset": 0,
      "name": "floatBufferViews",
      "target": 34963
    },
    {
      "buffer": 0,
      "byteLength": 12200,
      "byteOffset": 22992,
      "byteStride": 8,
      "name": "floatBufferViews",
      "target": 34962
    },
    {
      "buffer": 0,
      "byteLength": 36600,
      "byteOffset": 35192,
      "byteStride": 12,
      "name": "floatBufferViews",
      "target": 34962
    },
    {
      "buffer": 0,
      "byteLength": 24400,
      "byteOffset": 71792,
      "byteStride": 16,
      "name": "floatBufferViews",
      "target": 34962
    }
  ],
  "buffers": [
    {
      "byteLength": 96192,
      "uri": "scene.bin"
    }
  ],
  "images": [
    {
      "uri": "textures/ConserveThon_baseColor.png"
    },
    {
      "uri": "textures/ConserveThon_normal.png"
    }
  ],
  "materials": [
    {
      "doubleSided": true,
      "emissiveFactor": [
        0,
        0,
        0
      ],
      "name": "ConserveThon",
      "normalTexture": {
        "index": 1,
        "scale": 1,
        "texCoord": 0
      },
      "pbrMetallicRoughness": {
        "baseColorFactor": [
          1,
          1,
          1,
          1
        ],
        "baseColorTexture": {
          "index": 0,
          "texCoord": 0
        },
        "metallicFactor": 0,
        "roughnessFactor": 0.80404082057734572
      }
    }
  ],
  "meshes": [
    {
      "name": "Cylinder_ConserveThon_0",
      "primitives": [
        {
          "attributes": {
            "NORMAL": 1,
            "POSITION": 0,
            "TANGENT": 2,
            "TEXCOORD_0": 3
          },
          "indices": 4,
          "material": 0,
          "mode": 4
        }
      ]
    }
  ],
  "nodes": [
    {
      "children": [
        1
      ],
      "name": "RootNode (gltf orientation matrix)",
      "rotation": [
        -0.70710678118654746,
        -0,
        -0,
        0.70710678118654757
      ]
    },
    {
      "children": [
        2
      ],
      "name": "RootNode (model correction matrix)"
    },
    {
      "children": [
        3
      ],
      "matrix": [
        1,
        0,
        0,
        0,
        0,
        0,
        1,
        0,
        0,
        -1,
        0,
        0,
        0,
        0,
        0,
        1
      ],
      "name": "ConservThon.fbx"
    },
    {
      "children": [
        4
      ],
      "name": "RootNode"
    },
    {
      "children": [
        5
      ],
      "matrix": [
        15.309535980224609,
        0,
        0,
        0,
        0,
        -2.4942400030718811e-06,
        -15.309535980224407,
        0,
        0,
        15.309535980224407,
        -2.4942400030718811e-06,
        0,
        0,
        4.9433517456054688,
        0,
        1
      ],
      "name": "Cylinder"
    },
    {
      "mesh": 0,
      "name": "Cylinder_ConserveThon_0"
    }
  ],
  "samplers": [
    {
      "magFilter": 9729,
      "minFilter": 9987,
      "wrapS": 10497,
      "wrapT": 10497
    }
  ],
  "scene": 0,
  "scenes": [
    {
      "name": "OSG_Scene",
      "nodes": [
        0
      ]
    }
  ],
  "textures": [
    {
      "sampler": 0,
      "source": 0
    },
    {
      "sampler": 0,
      "source": 1
    }
  ]
}

